<svg xmlns="http://www.w3.org/2000/svg" width="1320" height="336" viewBox="0 0 1320 336">
<rect width="100%" height="100%" fill="white"/>
<defs>
</defs>
<text x="24" y="30" font-family="Arial, sans-serif" font-size="16" text-anchor="start" font-weight="bold" fill="#222">INSIPHY integrated phylogenetic intragenic synteny</text>
<text x="24" y="52" font-family="Arial, sans-serif" font-size="10" text-anchor="start" font-weight="normal" fill="#555">tree: species_tree.tsv</text>
<text x="360" y="52" font-family="Arial, sans-serif" font-size="10" text-anchor="start" font-weight="normal" fill="#555">exon-like gene-internal synteny</text>
<line x1="46.00" y1="136.25" x2="46.00" y2="132.00" stroke="#555" stroke-width="1.2"/>
<line x1="46.00" y1="132.00" x2="114.00" y2="132.00" stroke="#555" stroke-width="1.2"/>
<circle cx="80.00" cy="132.00" r="3.00" fill="#0072B2" fill-opacity="0.120" stroke="#111" stroke-width="0.7"/>
<line x1="114.00" y1="132.00" x2="114.00" y2="115.00" stroke="#555" stroke-width="1.2"/>
<line x1="114.00" y1="115.00" x2="182.00" y2="115.00" stroke="#555" stroke-width="1.2"/>
<circle cx="148.00" cy="115.00" r="3.00" fill="#0072B2" fill-opacity="0.120" stroke="#111" stroke-width="0.7"/>
<line x1="114.00" y1="132.00" x2="114.00" y2="149.00" stroke="#555" stroke-width="1.2"/>
<line x1="114.00" y1="149.00" x2="182.00" y2="149.00" stroke="#555" stroke-width="1.2"/>
<circle cx="148.00" cy="149.00" r="3.00" fill="#0072B2" fill-opacity="0.120" stroke="#111" stroke-width="0.7"/>
<line x1="46.00" y1="136.25" x2="46.00" y2="140.50" stroke="#555" stroke-width="1.2"/>
<line x1="46.00" y1="140.50" x2="114.00" y2="140.50" stroke="#555" stroke-width="1.2"/>
<circle cx="80.00" cy="140.50" r="3.00" fill="#0072B2" fill-opacity="0.120" stroke="#111" stroke-width="0.7"/>
<line x1="114.00" y1="140.50" x2="114.00" y2="81.00" stroke="#555" stroke-width="1.2"/>
<line x1="114.00" y1="81.00" x2="182.00" y2="81.00" stroke="#555" stroke-width="1.2"/>
<circle cx="148.00" cy="81.00" r="3.00" fill="#0072B2" fill-opacity="0.120" stroke="#111" stroke-width="0.7"/>
<line x1="114.00" y1="140.50" x2="114.00" y2="200.00" stroke="#555" stroke-width="1.2"/>
<line x1="114.00" y1="200.00" x2="182.00" y2="200.00" stroke="#555" stroke-width="1.2"/>
<circle cx="148.00" cy="200.00" r="3.00" fill="#0072B2" fill-opacity="0.120" stroke="#111" stroke-width="0.7"/>
<line x1="182.00" y1="200.00" x2="182.00" y2="217.00" stroke="#555" stroke-width="1.2"/>
<line x1="182.00" y1="217.00" x2="250.00" y2="217.00" stroke="#555" stroke-width="1.2"/>
<circle cx="216.00" cy="217.00" r="3.00" fill="#0072B2" fill-opacity="0.120" stroke="#111" stroke-width="0.7"/>
<line x1="182.00" y1="200.00" x2="182.00" y2="183.00" stroke="#555" stroke-width="1.2"/>
<line x1="182.00" y1="183.00" x2="250.00" y2="183.00" stroke="#555" stroke-width="1.2"/>
<circle cx="216.00" cy="183.00" r="3.00" fill="#0072B2" fill-opacity="0.120" stroke="#111" stroke-width="0.7"/>
<text x="188.0" y="119.0" font-family="Arial, sans-serif" font-size="10" text-anchor="start" font-weight="normal" fill="#222">Drosophila_melanogaster</text>
<text x="188.0" y="153.0" font-family="Arial, sans-serif" font-size="10" text-anchor="start" font-weight="normal" fill="#222">Drosophila_simulans</text>
<text x="188.0" y="85.0" font-family="Arial, sans-serif" font-size="10" text-anchor="start" font-weight="normal" fill="#222">Drosophila_erecta</text>
<text x="256.0" y="221.0" font-family="Arial, sans-serif" font-size="10" text-anchor="start" font-weight="normal" fill="#222">Drosophila_yakuba</text>
<text x="256.0" y="187.0" font-family="Arial, sans-serif" font-size="10" text-anchor="start" font-weight="normal" fill="#222">Drosophila_teissieri</text>
<text x="120.0" y="127.0" font-family="Arial, sans-serif" font-size="9" text-anchor="start" font-weight="normal" fill="#555">mel_sim</text>
<text x="120.0" y="135.5" font-family="Arial, sans-serif" font-size="9" text-anchor="start" font-weight="normal" fill="#555">yak_tei_ere</text>
<text x="188.0" y="195.0" font-family="Arial, sans-serif" font-size="9" text-anchor="start" font-weight="normal" fill="#555">yak_tei</text>
<text x="260" y="85" font-family="Arial, sans-serif" font-size="9" text-anchor="start" font-weight="normal" fill="#333">Dere_RpL32</text>
<line x1="360" y1="81" x2="1278" y2="81" stroke="#D0D0D0" stroke-width="1"/>
<line x1="544.00" y1="81" x2="660.72" y2="81" stroke="#B8B8B8" stroke-width="1.1" stroke-dasharray="2 2"/>
<line x1="544.00" y1="77" x2="544.00" y2="85" stroke="#B8B8B8" stroke-width="0.8"/>
<line x1="660.72" y1="77" x2="660.72" y2="85" stroke="#B8B8B8" stroke-width="0.8"/>
<text x="260" y="119" font-family="Arial, sans-serif" font-size="9" text-anchor="start" font-weight="normal" fill="#333">Dmel_RpL32</text>
<line x1="360" y1="115" x2="1278" y2="115" stroke="#D0D0D0" stroke-width="1"/>
<line x1="830.31" y1="115" x2="923.76" y2="115" stroke="#B8B8B8" stroke-width="1.1" stroke-dasharray="2 2"/>
<line x1="830.31" y1="111" x2="830.31" y2="119" stroke="#B8B8B8" stroke-width="0.8"/>
<line x1="923.76" y1="111" x2="923.76" y2="119" stroke="#B8B8B8" stroke-width="0.8"/>
<line x1="1074.50" y1="115" x2="1229.76" y2="115" stroke="#B8B8B8" stroke-width="1.1" stroke-dasharray="2 2"/>
<line x1="1074.50" y1="111" x2="1074.50" y2="119" stroke="#B8B8B8" stroke-width="0.8"/>
<line x1="1229.76" y1="111" x2="1229.76" y2="119" stroke="#B8B8B8" stroke-width="0.8"/>
<text x="260" y="153" font-family="Arial, sans-serif" font-size="9" text-anchor="start" font-weight="normal" fill="#333">Dsim_RpL32</text>
<line x1="360" y1="149" x2="1278" y2="149" stroke="#D0D0D0" stroke-width="1"/>
<line x1="977.28" y1="149" x2="1094.00" y2="149" stroke="#B8B8B8" stroke-width="1.1" stroke-dasharray="2 2"/>
<line x1="977.28" y1="145" x2="977.28" y2="153" stroke="#B8B8B8" stroke-width="0.8"/>
<line x1="1094.00" y1="145" x2="1094.00" y2="153" stroke="#B8B8B8" stroke-width="0.8"/>
<text x="260" y="187" font-family="Arial, sans-serif" font-size="9" text-anchor="start" font-weight="normal" fill="#333">Dtei_RpL32</text>
<line x1="360" y1="183" x2="1278" y2="183" stroke="#D0D0D0" stroke-width="1"/>
<line x1="973.31" y1="183" x2="1095.19" y2="183" stroke="#B8B8B8" stroke-width="1.1" stroke-dasharray="2 2"/>
<line x1="973.31" y1="179" x2="973.31" y2="187" stroke="#B8B8B8" stroke-width="0.8"/>
<line x1="1095.19" y1="179" x2="1095.19" y2="187" stroke="#B8B8B8" stroke-width="0.8"/>
<text x="260" y="221" font-family="Arial, sans-serif" font-size="9" text-anchor="start" font-weight="normal" fill="#333">Dyak_RpL32</text>
<line x1="360" y1="217" x2="1278" y2="217" stroke="#D0D0D0" stroke-width="1"/>
<line x1="973.31" y1="217" x2="1095.19" y2="217" stroke="#B8B8B8" stroke-width="1.1" stroke-dasharray="2 2"/>
<line x1="973.31" y1="213" x2="973.31" y2="221" stroke="#B8B8B8" stroke-width="0.8"/>
<line x1="1095.19" y1="213" x2="1095.19" y2="221" stroke="#B8B8B8" stroke-width="0.8"/>
<path d="M360.00,81.00 C360.00,98.00 923.76,98.00 923.76,115.00 L1074.50,115.00 C1074.50,98.00 544.00,98.00 544.00,81.00 Z" fill="#777777" fill-opacity="0.10" stroke="none"/>
<path d="M452.00,81.00 C452.00,98.00 999.13,98.00 999.13,115.00" fill="none" stroke="#555555" stroke-width="0.85" stroke-opacity="0.55" stroke-dasharray="none"/>
<path d="M923.76,115.00 C923.76,132.00 1094.00,132.00 1094.00,149.00 L1278.00,149.00 C1278.00,132.00 1074.50,132.00 1074.50,115.00 Z" fill="#777777" fill-opacity="0.10" stroke="none"/>
<path d="M999.13,115.00 C999.13,132.00 1186.00,132.00 1186.00,149.00" fill="none" stroke="#555555" stroke-width="0.85" stroke-opacity="0.55" stroke-dasharray="none"/>
<path d="M1094.00,149.00 C1094.00,166.00 1095.19,166.00 1095.19,183.00 L1278.00,183.00 C1278.00,166.00 1278.00,166.00 1278.00,149.00 Z" fill="#777777" fill-opacity="0.10" stroke="none"/>
<path d="M1186.00,149.00 C1186.00,166.00 1186.59,166.00 1186.59,183.00" fill="none" stroke="#555555" stroke-width="0.85" stroke-opacity="0.55" stroke-dasharray="none"/>
<path d="M1095.19,183.00 C1095.19,200.00 1095.19,200.00 1095.19,217.00 L1278.00,217.00 C1278.00,200.00 1278.00,200.00 1278.00,183.00 Z" fill="#777777" fill-opacity="0.10" stroke="none"/>
<path d="M1186.59,183.00 C1186.59,200.00 1186.59,200.00 1186.59,217.00" fill="none" stroke="#555555" stroke-width="0.85" stroke-opacity="0.55" stroke-dasharray="none"/>
<path d="M660.72,81.00 C660.72,98.00 360.00,98.00 360.00,115.00 L830.31,115.00 C830.31,98.00 1278.00,98.00 1278.00,81.00 Z" fill="#777777" fill-opacity="0.10" stroke="none"/>
<path d="M969.36,81.00 C969.36,98.00 595.15,98.00 595.15,115.00" fill="none" stroke="#555555" stroke-width="0.85" stroke-opacity="0.55" stroke-dasharray="none"/>
<path d="M360.00,115.00 C360.00,132.00 360.00,132.00 360.00,149.00 L977.28,149.00 C977.28,132.00 830.31,132.00 830.31,115.00 Z" fill="#777777" fill-opacity="0.10" stroke="none"/>
<path d="M595.15,115.00 C595.15,132.00 668.64,132.00 668.64,149.00" fill="none" stroke="#555555" stroke-width="0.85" stroke-opacity="0.55" stroke-dasharray="none"/>
<path d="M360.00,149.00 C360.00,166.00 360.00,166.00 360.00,183.00 L973.31,183.00 C973.31,166.00 977.28,166.00 977.28,149.00 Z" fill="#777777" fill-opacity="0.10" stroke="none"/>
<path d="M668.64,149.00 C668.64,166.00 666.66,166.00 666.66,183.00" fill="none" stroke="#555555" stroke-width="0.85" stroke-opacity="0.55" stroke-dasharray="none"/>
<path d="M360.00,183.00 C360.00,200.00 360.00,200.00 360.00,217.00 L973.31,217.00 C973.31,200.00 973.31,200.00 973.31,183.00 Z" fill="#777777" fill-opacity="0.10" stroke="none"/>
<path d="M666.66,183.00 C666.66,200.00 666.66,200.00 666.66,217.00" fill="none" stroke="#555555" stroke-width="0.85" stroke-opacity="0.55" stroke-dasharray="none"/>
<rect x="360.00" y="73" width="184.00" height="16" rx="2" fill="#0072B2" stroke="#111111" stroke-width="0.8" stroke-dasharray="none"/>
<text x="451.9978448275862" y="100" font-family="Arial, sans-serif" font-size="8" text-anchor="middle" font-weight="normal" fill="#333">EG_0001</text>
<rect x="660.72" y="73" width="617.28" height="16" rx="2" fill="#E69F00" stroke="#111111" stroke-width="0.8" stroke-dasharray="none"/>
<text x="969.3620689655172" y="100" font-family="Arial, sans-serif" font-size="8" text-anchor="middle" font-weight="normal" fill="#333">EG_0003</text>
<rect x="360.00" y="107" width="470.31" height="16" rx="2" fill="#E69F00" stroke="#111111" stroke-width="0.8" stroke-dasharray="none"/>
<text x="595.152709359606" y="134" font-family="Arial, sans-serif" font-size="8" text-anchor="middle" font-weight="normal" fill="#333">EG_0003</text>
<rect x="923.76" y="107" width="150.74" height="16" rx="2" fill="#0072B2" stroke="#111111" stroke-width="0.8" stroke-dasharray="none"/>
<text x="999.1330049261084" y="134" font-family="Arial, sans-serif" font-size="8" text-anchor="middle" font-weight="normal" fill="#333">EG_0001</text>
<rect x="1229.76" y="107" width="48.24" height="16" rx="2" fill="#009E73" stroke="#111111" stroke-width="0.8" stroke-dasharray="none"/>
<text x="1253.8817733990147" y="134" font-family="Arial, sans-serif" font-size="8" text-anchor="middle" font-weight="normal" fill="#333">EG_0006</text>
<rect x="360.00" y="141" width="617.28" height="16" rx="2" fill="#E69F00" stroke="#111111" stroke-width="0.8" stroke-dasharray="none"/>
<text x="668.6379310344828" y="168" font-family="Arial, sans-serif" font-size="8" text-anchor="middle" font-weight="normal" fill="#333">EG_0003</text>
<rect x="1094.00" y="141" width="184.00" height="16" rx="2" fill="#0072B2" stroke="#111111" stroke-width="0.8" stroke-dasharray="none"/>
<text x="1186.0021551724137" y="168" font-family="Arial, sans-serif" font-size="8" text-anchor="middle" font-weight="normal" fill="#333">EG_0001</text>
<rect x="360.00" y="175" width="613.31" height="16" rx="2" fill="#E69F00" stroke="#111111" stroke-width="0.8" stroke-dasharray="none"/>
<text x="666.6552462526768" y="202" font-family="Arial, sans-serif" font-size="8" text-anchor="middle" font-weight="normal" fill="#333">EG_0003</text>
<rect x="1095.19" y="175" width="182.81" height="16" rx="2" fill="#0072B2" stroke="#111111" stroke-width="0.8" stroke-dasharray="none"/>
<text x="1186.593147751606" y="202" font-family="Arial, sans-serif" font-size="8" text-anchor="middle" font-weight="normal" fill="#333">EG_0001</text>
<rect x="360.00" y="209" width="613.31" height="16" rx="2" fill="#E69F00" stroke="#111111" stroke-width="0.8" stroke-dasharray="none"/>
<text x="666.6552462526768" y="236" font-family="Arial, sans-serif" font-size="8" text-anchor="middle" font-weight="normal" fill="#333">EG_0003</text>
<rect x="1095.19" y="209" width="182.81" height="16" rx="2" fill="#0072B2" stroke="#111111" stroke-width="0.8" stroke-dasharray="none"/>
<text x="1186.593147751606" y="236" font-family="Arial, sans-serif" font-size="8" text-anchor="middle" font-weight="normal" fill="#333">EG_0001</text>
<text x="24" y="304" font-family="Arial, sans-serif" font-size="10" text-anchor="start" font-weight="normal" fill="#555">Branch symbols scale continuously with posterior change probability; links mark exon correspondence; introns are gray context.</text>
</svg>